<svg width="34" height="34" viewBox="0 0 34 34" fill="none" xmlns="http://www.w3.org/2000/svg">
<rect width="34" height="34" rx="17" fill="#E9E9E9"/>
<path d="M18.2975 10.6325L19.6175 13.2725C19.7975 13.64 20.2775 13.9925 20.6825 14.06L23.075 14.4575C24.605 14.7125 24.965 15.8225 23.8625 16.9175L22.0025 18.7775C21.6875 19.0925 21.515 19.7 21.6125 20.135L22.145 22.4375C22.565 24.26 21.5975 24.965 19.985 24.0125L17.7425 22.685C17.3375 22.445 16.67 22.445 16.2575 22.685L14.015 24.0125C12.41 24.965 11.435 24.2525 11.855 22.4375L12.3875 20.135C12.485 19.7 12.3125 19.0925 11.9975 18.7775L10.1375 16.9175C9.04249 15.8225 9.39499 14.7125 10.925 14.4575L13.3175 14.06C13.715 13.9925 14.195 13.64 14.375 13.2725L15.695 10.6325C16.415 9.2 17.585 9.2 18.2975 10.6325Z" stroke="#0079BF" stroke-width="1.5" stroke-linecap="round" stroke-linejoin="round"/>
</svg>
