<svg width="20.000000" height="20.000000" viewBox="0 0 20 20" fill="none" xmlns="http://www.w3.org/2000/svg" xmlns:xlink="http://www.w3.org/1999/xlink">
	<desc>
			Created with Pixso.
	</desc>
	<defs/>
	<rect id="State=Graphic Icon" rx="0.000000" width="19.000000" height="19.000000" transform="translate(0.500000 0.500000)" fill="#FFFFFF" fill-opacity="0"/>
	<path id="Vector" d="M10.29 1.94C10.11 1.85 9.88 1.85 9.7 1.94L0.33 6.94C0.12 7.05 0 7.26 0 7.5C0 7.73 0.12 7.94 0.33 8.05L3.98 10L0.33 11.94C0.12 12.05 0 12.26 0 12.5C0 12.73 0.12 12.94 0.33 13.05L9.7 18.05C9.88 18.14 10.11 18.14 10.29 18.05L19.66 13.05C19.87 12.94 20 12.73 20 12.5C20 12.26 19.87 12.05 19.66 11.94L16.01 10L19.66 8.05C19.87 7.94 20 7.73 20 7.5C20 7.26 19.87 7.05 19.66 6.94L10.29 1.94ZM10 11.79L1.95 7.5L10 3.2L18.04 7.5L10 11.79Z" fill="#919191" fill-opacity="1.000000" fill-rule="nonzero"/>
</svg>
