<svg width="20.000000" height="20.000000" viewBox="0 0 20 20" fill="none" xmlns="http://www.w3.org/2000/svg" xmlns:xlink="http://www.w3.org/1999/xlink">
	<desc>
			Created with Pixso.
	</desc>
	<defs/>
	<path d="M2.5 3.43C2.5 2.91 2.91 2.5 3.43 2.5L8.12 2.5C8.64 2.5 9.06 2.91 9.06 3.43L9.06 16.56C9.06 17.08 8.64 17.5 8.12 17.5L3.43 17.5C2.91 17.5 2.5 17.08 2.5 16.56L2.5 3.43ZM10.93 3.43C10.93 2.91 11.35 2.5 11.87 2.5L16.56 2.5C17.08 2.5 17.5 2.91 17.5 3.43L17.5 8.12C17.5 8.64 17.08 9.06 16.56 9.06L11.87 9.06C11.35 9.06 10.93 8.64 10.93 8.12L10.93 3.43ZM11.87 10.93C11.35 10.93 10.93 11.35 10.93 11.87L10.93 16.56C10.93 17.08 11.35 17.5 11.87 17.5L16.56 17.5C17.08 17.5 17.5 17.08 17.5 16.56L17.5 11.87C17.5 11.35 17.08 10.93 16.56 10.93L11.87 10.93Z" fill="#919191" fill-opacity="1.000000" fill-rule="evenodd"/>
</svg>
