<svg width="23.000000" height="22.000000" viewBox="0 0 23 22" fill="none" xmlns="http://www.w3.org/2000/svg" xmlns:xlink="http://www.w3.org/1999/xlink">
	<desc>
			Created with Pixso.
	</desc>
	<defs/>
	<path d="M20.03 5.5C20.46 5.5 20.8 5.85 20.8 6.28C20.8 6.71 20.46 7.07 20.03 7.07L2.96 7.07C2.53 7.07 2.19 6.71 2.19 6.28C2.19 5.85 2.53 5.5 2.96 5.5L20.03 5.5ZM20.8 11C20.8 10.56 20.46 10.21 20.03 10.21L9.17 10.21C8.74 10.21 8.39 10.56 8.39 11C8.39 11.43 8.74 11.78 9.17 11.78L20.03 11.78C20.46 11.78 20.8 11.43 20.8 11ZM20.8 15.71C20.8 15.28 20.46 14.92 20.03 14.92L2.96 14.92C2.53 14.92 2.19 15.28 2.19 15.71C2.19 16.14 2.53 16.5 2.96 16.5L20.03 16.5C20.46 16.5 20.8 16.14 20.8 15.71Z" fill="#919191" fill-opacity="1.000000" fill-rule="evenodd"/>
</svg>
