<svg width="23.000000" height="22.000000" viewBox="0 0 23 22" fill="none" xmlns="http://www.w3.org/2000/svg" xmlns:xlink="http://www.w3.org/1999/xlink">
	<desc>
			Created with Pixso.
	</desc>
	<defs/>
	<path d="M2.96 5.5C2.53 5.5 2.19 5.85 2.19 6.28C2.19 6.71 2.53 7.07 2.96 7.07L20.03 7.07C20.46 7.07 20.8 6.71 20.8 6.28C20.8 5.85 20.46 5.5 20.03 5.5L2.96 5.5ZM2.19 11C2.19 10.56 2.53 10.21 2.96 10.21L13.82 10.21C14.25 10.21 14.6 10.56 14.6 11C14.6 11.43 14.25 11.78 13.82 11.78L2.96 11.78C2.53 11.78 2.19 11.43 2.19 11ZM2.19 15.71C2.19 15.28 2.53 14.92 2.96 14.92L20.03 14.92C20.46 14.92 20.8 15.28 20.8 15.71C20.8 16.14 20.46 16.5 20.03 16.5L2.96 16.5C2.53 16.5 2.19 16.14 2.19 15.71Z" fill="#919191" fill-opacity="1.000000" fill-rule="evenodd"/>
</svg>
