<svg width="20.000000" height="20.000000" viewBox="0 0 20 20" fill="none" xmlns="http://www.w3.org/2000/svg" xmlns:xlink="http://www.w3.org/1999/xlink">
	<desc>
			Created with Pixso.
	</desc>
	<defs/>
	<path id="Vector" d="M16.87 6.66C16.87 8.5 15.33 9.99 13.43 9.99C11.53 9.99 10 8.5 10 6.66C10 4.82 11.53 3.33 13.43 3.33C15.33 3.33 16.87 4.82 16.87 6.66ZM8.85 7.22C8.85 8.75 7.57 9.99 5.98 9.99C4.4 9.99 3.12 8.75 3.12 7.22C3.12 5.68 4.4 4.44 5.98 4.44C7.57 4.44 8.85 5.68 8.85 7.22ZM6.81 16.66C6.64 16.35 6.56 15.97 6.56 15.55C6.56 14.04 7.34 12.5 8.78 11.42C8.15 11.22 7.41 11.11 6.56 11.11C1.97 11.11 0.83 14.44 0.83 15.55C0.83 16.66 1.97 16.66 1.97 16.66L6.81 16.66ZM7.7 15.55C7.7 16.66 8.85 16.66 8.85 16.66L18.02 16.66C18.02 16.66 19.16 16.66 19.16 15.55C19.16 14.44 18.02 11.11 13.43 11.11C8.85 11.11 7.7 14.44 7.7 15.55Z" fill="#919191" fill-opacity="1.000000" fill-rule="evenodd"/>
	<path id="Vector" d="M7.7 15.55C7.7 14.44 8.85 11.11 13.43 11.11C18.02 11.11 19.16 14.44 19.16 15.55C19.16 16.66 18.02 16.66 18.02 16.66L8.85 16.66C8.85 16.66 7.7 16.66 7.7 15.55ZM16.87 6.66C16.87 4.82 15.33 3.33 13.43 3.33C11.53 3.33 10 4.82 10 6.66C10 8.5 11.53 9.99 13.43 9.99C15.33 9.99 16.87 8.5 16.87 6.66ZM6.56 15.55C6.56 14.04 7.34 12.5 8.78 11.42C8.15 11.22 7.41 11.11 6.56 11.11C1.97 11.11 0.83 14.44 0.83 15.55C0.83 16.66 1.97 16.66 1.97 16.66L6.81 16.66C6.64 16.35 6.56 15.97 6.56 15.55ZM8.85 7.22C8.85 5.68 7.57 4.44 5.98 4.44C4.4 4.44 3.12 5.68 3.12 7.22C3.12 8.75 4.4 9.99 5.98 9.99C7.57 9.99 8.85 8.75 8.85 7.22Z" stroke="#979797" stroke-opacity="0" stroke-width="0.000000"/>
</svg>
