<svg width="20.000000" height="20.000000" viewBox="0 0 20 20" fill="none" xmlns="http://www.w3.org/2000/svg" xmlns:xlink="http://www.w3.org/1999/xlink">
	<desc>
			Created with Pixso.
	</desc>
	<defs/>
	<path id="Vector" d="M11.46 2.76C11.03 1.3 8.96 1.3 8.53 2.76L8.43 3.11C8.15 4.04 7.09 4.48 6.23 4.02L5.91 3.84C4.58 3.11 3.11 4.58 3.84 5.91L4.02 6.23C4.48 7.09 4.04 8.15 3.11 8.43L2.76 8.53C1.3 8.96 1.3 11.03 2.76 11.46L3.11 11.56C4.04 11.84 4.48 12.9 4.02 13.76L3.84 14.08C3.11 15.41 4.58 16.88 5.91 16.15L6.23 15.97C7.09 15.51 8.15 15.95 8.43 16.88L8.53 17.23C8.96 18.69 11.03 18.69 11.46 17.23L11.56 16.88C11.84 15.95 12.9 15.51 13.76 15.97L14.08 16.15C15.41 16.88 16.88 15.41 16.15 14.08L15.97 13.76C15.51 12.9 15.95 11.84 16.88 11.56L17.23 11.46C18.69 11.03 18.69 8.96 17.23 8.53L16.88 8.43C15.95 8.15 15.51 7.09 15.97 6.23L16.15 5.91C16.88 4.58 15.41 3.11 14.08 3.84L13.76 4.02C12.9 4.48 11.84 4.04 11.56 3.11L11.46 2.76ZM9.99 13.05C8.31 13.05 6.94 11.68 6.94 10C6.94 8.31 8.31 6.94 9.99 6.94C11.68 6.94 13.05 8.31 13.05 10C13.05 11.68 11.68 13.05 9.99 13.05Z" fill="#919191" fill-opacity="1.000000" fill-rule="nonzero"/>
</svg>
