<svg width="24" height="24" viewBox="0 0 24 24" fill="none" xmlns="http://www.w3.org/2000/svg">
<path d="M12.0001 6.3999C12.3867 6.3999 12.7001 6.7133 12.7001 7.0999V11.2999H16.9001C17.2867 11.2999 17.6001 11.6133 17.6001 11.9999C17.6001 12.3865 17.2867 12.6999 16.9001 12.6999H12.7001V16.8999C12.7001 17.2865 12.3867 17.5999 12.0001 17.5999C11.6135 17.5999 11.3001 17.2865 11.3001 16.8999V12.6999H7.10015C6.71355 12.6999 6.40015 12.3865 6.40015 11.9999C6.40015 11.6133 6.71355 11.2999 7.10015 11.2999H11.3001V7.0999C11.3001 6.7133 11.6135 6.3999 12.0001 6.3999Z" fill="white"/>
</svg>
