<svg width="16.000000" height="16.000000" viewBox="0 0 16 16" fill="none" xmlns="http://www.w3.org/2000/svg" xmlns:xlink="http://www.w3.org/1999/xlink">
	<desc>
			Created with Pixso.
	</desc>
	<defs/>
	<path d="M1.31 4.42L1.27 3.69C1.27 2.75 2.08 2 3.07 2L6.36 2C6.83 2 7.29 2.17 7.62 2.49L8.37 3.19C8.7 3.51 9.16 3.69 9.63 3.69L13.2 3.69C14.26 3.69 15.08 4.54 14.99 5.53L14.42 11.46C14.33 12.33 13.56 13 12.63 13L3.36 13C2.43 13 1.66 12.33 1.57 11.46L1 5.53C0.96 5.12 1.08 4.74 1.31 4.42ZM2.79 4.53C2.26 4.53 1.85 4.96 1.9 5.46L2.47 11.38C2.51 11.82 2.89 12.15 3.36 12.15L12.63 12.15C13.1 12.15 13.48 11.82 13.52 11.38L14.09 5.46C14.14 4.96 13.73 4.53 13.2 4.53L2.79 4.53ZM6.99 3.09C6.82 2.93 6.59 2.84 6.36 2.84L3.07 2.84C2.58 2.84 2.18 3.21 2.17 3.67L2.18 3.79C2.37 3.72 2.57 3.69 2.79 3.69L7.62 3.69L6.99 3.09Z" fill="#343A40" fill-opacity="1.000000" fill-rule="nonzero"/>
</svg>
