<svg width="16.000000" height="16.000000" viewBox="0 0 16 16" fill="none" xmlns="http://www.w3.org/2000/svg" xmlns:xlink="http://www.w3.org/1999/xlink">
	<desc>
			Created with Pixso.
	</desc>
	<defs/>
	<path id="Vector" d="M8 3L8 4.46C8 4.67 7.75 4.79 7.58 4.65L5.23 2.69C5.11 2.59 5.11 2.4 5.23 2.3L7.58 0.34C7.75 0.2 8 0.32 8 0.53L8 2C11.31 2 14 4.68 14 8C14 11.31 11.31 14 8 14C4.68 14 2 11.31 2 8C2 7.1 2.19 6.25 2.54 5.49C2.66 5.24 2.95 5.13 3.2 5.25C3.45 5.36 3.56 5.66 3.45 5.91C3.16 6.54 3 7.25 3 8C3 10.76 5.23 13 8 13C10.76 13 13 10.76 13 8C13 5.23 10.76 3 8 3Z" fill="#000000" fill-opacity="1.000000" fill-rule="evenodd"/>
</svg>
