<svg width="16.000000" height="16.000000" viewBox="0 0 16 16" fill="none" xmlns="http://www.w3.org/2000/svg" xmlns:xlink="http://www.w3.org/1999/xlink">
	<desc>
			Created with Pixso.
	</desc>
	<defs>
		<clipPath id="clip499_1794">
			<rect id="State=Attach" rx="0.000000" width="14.500000" height="14.500000" transform="translate(0.750000 0.750000)" fill="white" fill-opacity="0"/>
		</clipPath>
	</defs>
	<g clip-path="url(#clip499_1794)">
		<path id="Icon Shape" d="M8.67 2.15C8.9 2.37 8.9 2.72 8.68 2.93L2.98 8.37C1.89 9.4 1.89 11.08 2.98 12.12C4.06 13.15 5.81 13.15 6.9 12.12L13.31 6.01C14 5.35 14 4.27 13.31 3.61C12.62 2.95 11.5 2.95 10.81 3.61L5.35 8.82C5.05 9.1 5.05 9.57 5.35 9.86C5.65 10.14 6.13 10.14 6.42 9.86L11.17 5.33C11.4 5.11 11.77 5.11 12 5.32C12.23 5.54 12.23 5.89 12 6.1L7.25 10.63C6.5 11.35 5.27 11.35 4.52 10.63C3.77 9.92 3.77 8.76 4.52 8.04L9.98 2.84C11.13 1.74 12.99 1.74 14.14 2.84C15.28 3.93 15.28 5.69 14.14 6.78L7.73 12.89C6.19 14.36 3.69 14.36 2.15 12.89C0.61 11.43 0.61 9.06 2.15 7.59L7.85 2.16C8.07 1.94 8.44 1.94 8.67 2.15Z" fill="#000000" fill-opacity="1.000000" fill-rule="evenodd"/>
		<path id="Icon Shape" d="M8.67 2.15C8.44 1.94 8.07 1.94 7.85 2.16L2.15 7.59C0.61 9.06 0.61 11.43 2.15 12.89C3.69 14.36 6.19 14.36 7.73 12.89L14.14 6.78C15.28 5.69 15.28 3.93 14.14 2.84C12.99 1.74 11.13 1.74 9.98 2.84L4.52 8.04C3.77 8.76 3.77 9.92 4.52 10.63C5.27 11.35 6.5 11.35 7.25 10.63L12 6.1C12.23 5.89 12.23 5.54 12 5.32C11.77 5.11 11.4 5.11 11.17 5.33L6.42 9.86C6.13 10.14 5.65 10.14 5.35 9.86C5.05 9.57 5.05 9.1 5.35 8.82L10.81 3.61C11.5 2.95 12.62 2.95 13.31 3.61C14 4.27 14 5.35 13.31 6.01L6.9 12.12C5.81 13.15 4.06 13.15 2.98 12.12C1.89 11.08 1.89 9.4 2.98 8.37L8.68 2.93C8.9 2.72 8.9 2.37 8.67 2.15Z" stroke="#FFFFFF" stroke-opacity="1.000000" stroke-width="0.100000"/>
	</g>
</svg>
