<svg width="28" height="31" viewBox="0 0 28 31" fill="none" xmlns="http://www.w3.org/2000/svg">
<path d="M14.0001 20.5828C13.1898 20.5864 12.3903 20.3879 11.6671 20.0037C10.9439 19.6194 10.3175 19.0603 9.83948 18.3723L6.50757 20.3851C6.63436 20.5388 6.78446 20.6694 6.95183 20.7715L12.8809 24.3658C13.2274 24.552 13.611 24.649 14.0001 24.649C14.3892 24.649 14.7727 24.552 15.1192 24.3658L21.0483 20.7715C21.2157 20.6694 21.3658 20.5388 21.4926 20.3851L18.1692 18.3363C17.694 19.0323 17.068 19.5991 16.3429 19.9897C15.6179 20.3804 14.8147 20.5837 14.0001 20.5828Z" fill="#0079BF"/>
<path d="M8.78331 15.1585C8.78635 13.8806 9.27761 12.6486 10.1632 11.698C11.0488 10.7473 12.2666 10.1447 13.5838 10.0053V6.13183C13.384 6.17189 13.1917 6.24142 13.0138 6.33796L6.83285 9.77344C6.49689 9.99018 6.21755 10.279 6.01671 10.6172C5.81582 10.9555 5.6989 11.3339 5.67505 11.7231V18.594C5.6778 18.7922 5.71076 18.9891 5.77299 19.178L9.24647 17.2456C8.94274 16.5887 8.78498 15.8778 8.78331 15.1585Z" fill="#0079BF"/>
<path d="M21.2282 9.77104L15.3725 6.33783C15.204 6.24133 15.0219 6.17185 14.8325 6.13183V9.99418C15.628 10.0859 16.3913 10.3662 17.0607 10.8128C17.7302 11.2594 18.2873 11.8597 18.6871 12.5652C19.0868 13.2708 19.3181 14.0621 19.3623 14.8752C19.4065 15.6884 19.2624 16.5007 18.9416 17.2469L22.2322 19.178C22.2912 18.9891 22.3224 18.7925 22.325 18.5944V11.728C22.3037 11.3376 22.1935 10.9577 22.0032 10.6181C21.8128 10.2785 21.5475 9.98849 21.2282 9.77104Z" fill="#0079BF"/>
<path d="M25.4934 6.33009L15.8268 0.677802C15.2599 0.389902 14.6343 0.239998 14 0.239998C13.3658 0.239998 12.7403 0.389902 12.1734 0.677802L2.50673 6.33009C1.97613 6.68006 1.53437 7.15145 1.21702 7.70617C0.899709 8.26088 0.715768 8.88336 0.680054 9.52329V20.8278C0.715102 21.4691 0.89871 22.0931 1.21602 22.6494C1.53332 23.2056 1.97547 23.6785 2.50673 24.0299L12.1734 29.6823C12.7403 29.9702 13.3658 30.12 14 30.12C14.6343 30.12 15.2599 29.9702 15.8268 29.6823L25.4934 24.0299C26.0246 23.6785 26.4668 23.2056 26.7841 22.6494C27.1014 22.0931 27.285 21.4691 27.32 20.8278V9.52329C27.2843 8.88336 27.1004 8.26088 26.7831 7.70617C26.4657 7.15145 26.024 6.68006 25.4934 6.33009ZM24.2522 19.5275C24.2239 20.0202 24.0818 20.4993 23.8374 20.9263C23.5931 21.3534 23.2532 21.7165 22.8451 21.9866L15.3984 26.3386C14.9635 26.5609 14.483 26.6768 13.9957 26.6768C13.5084 26.6768 13.0279 26.5609 12.5929 26.3386L5.15503 21.9866C4.7469 21.7165 4.40703 21.3534 4.16269 20.9263C3.91831 20.4993 3.77624 20.0202 3.74786 19.5275V10.8325C3.77624 10.3398 3.91831 9.86073 4.16269 9.43369C4.40703 9.00662 4.7469 8.64347 5.15503 8.37338L12.5841 4.02142C13.0191 3.79908 13.4996 3.68323 13.9869 3.68323C14.4742 3.68323 14.9548 3.79908 15.3897 4.02142L22.8363 8.37338C23.246 8.64251 23.5877 9.00523 23.8336 9.43235C24.0795 9.85942 24.2229 10.339 24.2522 10.8325V19.5275Z" fill="#0079BF"/>
<path d="M10.2538 15.18C10.2538 15.8875 10.4735 16.5791 10.8851 17.1674C11.2967 17.7557 11.8819 18.2141 12.5664 18.4849C13.251 18.7556 14.0042 18.8265 14.7309 18.6885C15.4576 18.5504 16.1251 18.2098 16.649 17.7095C17.1729 17.2092 17.5298 16.5718 17.6743 15.8779C17.8188 15.184 17.7447 14.4648 17.4611 13.8111C17.1776 13.1574 16.6975 12.5988 16.0814 12.2057C15.4653 11.8126 14.741 11.6028 14 11.6028C13.0065 11.6028 12.0536 11.9797 11.3511 12.6506C10.6485 13.3214 10.2538 14.2313 10.2538 15.18Z" fill="#0079BF"/>
</svg>
