<svg width="16.000000" height="16.000000" viewBox="0 0 16 16" fill="none" xmlns="http://www.w3.org/2000/svg" xmlns:xlink="http://www.w3.org/1999/xlink">
	<desc>
			Created with Pixso.
	</desc>
	<defs/>
	<path d="M4.62 2C4.83 2 5 2.16 5 2.37L5 2.75L11 2.75L11 2.37C11 2.16 11.16 2 11.37 2C11.58 2 11.75 2.16 11.75 2.37L11.75 2.75L12.5 2.75C13.32 2.75 14 3.42 14 4.25L14 12.5C14 13.32 13.32 14 12.5 14L3.5 14C2.67 14 2 13.32 2 12.5L2 4.25C2 3.42 2.67 2.75 3.5 2.75L4.25 2.75L4.25 2.37C4.25 2.16 4.41 2 4.62 2ZM3.5 3.5C3.08 3.5 2.75 3.83 2.75 4.25L2.75 5L13.25 5L13.25 4.25C13.25 3.83 12.91 3.5 12.5 3.5L3.5 3.5ZM13.25 5.75L2.75 5.75L2.75 12.5C2.75 12.91 3.08 13.25 3.5 13.25L12.5 13.25C12.91 13.25 13.25 12.91 13.25 12.5L13.25 5.75Z" fill="#111111" fill-opacity="1.000000" fill-rule="evenodd"/>
</svg>
