<svg width="16.000000" height="16.000000" viewBox="0 0 16 16" fill="none" xmlns="http://www.w3.org/2000/svg" xmlns:xlink="http://www.w3.org/1999/xlink">
	<desc>
			Created with Pixso.
	</desc>
	<defs/>
	<path id="Vector" d="M1 2.75C1 1.78 1.78 1 2.75 1L13.25 1C14.21 1 15 1.78 15 2.75L15 13.25C15 14.21 14.21 15 13.25 15L2.75 15C1.78 15 1 14.21 1 13.25L1 2.75ZM14.12 2.75C14.12 2.26 13.73 1.87 13.25 1.87L2.75 1.87C2.26 1.87 1.87 2.26 1.87 2.75L1.87 13.25C1.87 13.73 2.26 14.12 2.75 14.12L13.25 14.12C13.73 14.12 14.12 13.73 14.12 13.25L14.12 2.75ZM11.52 5.34C11.27 5.09 10.85 5.09 10.59 5.34C10.59 5.35 10.58 5.36 10.58 5.36L7.54 9.23L5.71 7.4C5.45 7.15 5.03 7.15 4.78 7.4C4.52 7.66 4.52 8.07 4.78 8.33L7.09 10.65C7.35 10.9 7.77 10.9 8.02 10.65C8.03 10.64 8.03 10.63 8.04 10.63L11.53 6.26C11.78 6.01 11.77 5.6 11.52 5.34Z" fill="#343A40" fill-opacity="1.000000" fill-rule="evenodd"/>
</svg>
