<svg width="20.000000" height="20.000000" viewBox="0 0 20 20" fill="none" xmlns="http://www.w3.org/2000/svg" xmlns:xlink="http://www.w3.org/1999/xlink">
	<desc>
			Created with Pixso.
	</desc>
	<defs/>
	<path id="Vector" d="M18 10C18 14.41 14.41 18 10 18C5.58 18 2 14.41 2 10C2 5.58 5.58 2 10 2C14.41 2 18 5.58 18 10ZM10 17C13.86 17 17 13.86 17 10C17 6.13 13.86 3 10 3C6.13 3 3 6.13 3 10C3 13.86 6.13 17 10 17ZM9.5 5C9.77 5 10 5.22 10 5.5L10 10.7L13.24 12.56C13.48 12.7 13.57 13 13.43 13.24C13.29 13.48 12.99 13.57 12.75 13.43L9.25 11.43C9.09 11.34 9 11.17 9 11L9 5.5C9 5.22 9.22 5 9.5 5Z" fill="#343A40" fill-opacity="1.000000" fill-rule="evenodd"/>
</svg>
