<svg width="18" height="18" viewBox="0 0 18 18" fill="none" xmlns="http://www.w3.org/2000/svg">
<path d="M14.3994 1.75024C15.4202 1.75024 16.25 2.56214 16.25 3.56567V14.8577C16.25 15.2972 15.7102 15.513 15.3965 15.2053L12.8281 12.6868C12.6688 12.5306 12.4522 12.4426 12.2266 12.4426H3.59961C2.57892 12.4425 1.75005 11.6306 1.75 10.6272V3.56567C1.75 2.5622 2.57889 1.75035 3.59961 1.75024H14.3994ZM3.59961 2.73267C3.12934 2.73277 2.75 3.10676 2.75 3.56567V10.6272C2.75005 11.0861 3.12937 11.4601 3.59961 11.4602H12.2266C12.7169 11.4602 13.1881 11.6511 13.5352 11.9915L15.25 13.6731V3.56567C15.25 3.10669 14.8698 2.73267 14.3994 2.73267H3.59961Z" fill="#919191" stroke="#919191" stroke-width="0.1"/>
</svg>
