<svg width="24.000000" height="24.000000" viewBox="0 0 24 24" fill="none" xmlns="http://www.w3.org/2000/svg" xmlns:xlink="http://www.w3.org/1999/xlink">
	<desc>
			Created with Pixso.
	</desc>
	<defs>
		<clipPath id="clip459_1460">
			<rect id="State=Edit" rx="0.000000" width="22.500002" height="22.500002" transform="translate(0.750000 0.750000)" fill="white" fill-opacity="0"/>
		</clipPath>
	</defs>
	<g clip-path="url(#clip459_1460)">
		<path id="Icon Shape" d="M14.96 3.65C15.84 2.78 17.27 2.78 18.15 3.65L19.5 5.01C20.38 5.89 20.38 7.31 19.5 8.19L9.14 18.54L4.48 20.1C3.6 20.39 2.76 19.55 3.05 18.68L4.61 14.01L14.96 3.65ZM17.09 4.71C16.79 4.42 16.32 4.42 16.03 4.71L15.01 5.73L17.42 8.14L18.44 7.13C18.73 6.83 18.73 6.36 18.44 6.07L17.09 4.71ZM16.36 9.2L13.95 6.79L6.33 14.41L8.74 16.83L16.36 9.2ZM7.35 17.56L5.59 15.8L4.71 18.44L7.35 17.56Z" fill="#6E6E6E" fill-opacity="1.000000" fill-rule="evenodd"/>
	</g>
</svg>
