<svg width="24.000000" height="24.000000" viewBox="0 0 24 24" fill="none" xmlns="http://www.w3.org/2000/svg" xmlns:xlink="http://www.w3.org/1999/xlink">
	<desc>
			Created with Pixso.
	</desc>
	<defs/>
	<path id="Vector" d="M6.25 6.25C6.58 5.91 7.12 5.91 7.46 6.25L12 10.78L16.53 6.25C16.87 5.91 17.41 5.91 17.74 6.25C18.08 6.58 18.08 7.12 17.74 7.46L13.21 12L17.74 16.53C18.08 16.87 18.08 17.41 17.74 17.74C17.41 18.08 16.87 18.08 16.53 17.74L12 13.21L7.46 17.74C7.12 18.08 6.58 18.08 6.25 17.74C5.91 17.41 5.91 16.87 6.25 16.53L10.78 12L6.25 7.46C5.91 7.12 5.91 6.58 6.25 6.25Z" fill="#919191" fill-opacity="1.000000" fill-rule="nonzero"/>
</svg>
