<svg width="24.000000" height="24.000000" viewBox="0 0 24 24" fill="none" xmlns="http://www.w3.org/2000/svg" xmlns:xlink="http://www.w3.org/1999/xlink">
	<desc>
			Created with Pixso.
	</desc>
	<defs>
		<clipPath id="clip459_1459">
			<rect id="State=Hide" rx="0.000000" width="22.500002" height="22.500002" transform="translate(0.750000 0.750000)" fill="white" fill-opacity="0"/>
		</clipPath>
	</defs>
	<g clip-path="url(#clip459_1459)">
		<path id="Icon Shape" d="M19.14 6.32C19.46 6.02 19.46 5.53 19.14 5.22C18.82 4.92 18.3 4.92 17.98 5.22L4.82 17.67C4.5 17.97 4.5 18.46 4.82 18.77C5.14 19.07 5.66 19.07 5.98 18.77L19.14 6.32ZM13.03 8.17C13.08 8.17 13.13 8.16 13.17 8.12L14.31 7.04C14.4 6.96 14.36 6.81 14.23 6.79C13.53 6.64 12.77 6.55 11.98 6.55C7.12 6.55 4.41 9.72 3.21 11.37C2.96 11.72 2.92 12.18 3.15 12.57C3.58 13.31 4.37 14.3 5.49 15.19C5.55 15.24 5.65 15.23 5.71 15.18L6.64 14.29C6.71 14.23 6.7 14.12 6.63 14.06C5.75 13.38 5.11 12.64 4.72 12.04C5.9 10.47 8.16 8.11 11.98 8.11C12.34 8.11 12.69 8.13 13.03 8.17ZM9.65 16.95C9.56 17.03 9.61 17.17 9.73 17.2C10.43 17.35 11.18 17.44 11.98 17.44C16.86 17.44 19.85 14.25 20.85 12.51C21.01 12.22 21.05 11.87 20.91 11.55C20.55 10.71 19.71 9.67 18.52 8.76C18.45 8.71 18.36 8.71 18.3 8.77L17.37 9.65C17.3 9.72 17.3 9.83 17.38 9.89C18.35 10.61 19 11.39 19.29 11.95C18.37 13.42 15.88 15.88 11.98 15.88C11.62 15.88 11.27 15.86 10.93 15.82C10.88 15.82 10.83 15.83 10.79 15.87L9.65 16.95ZM12 8.88C12.14 8.88 12.2 9.04 12.1 9.13L8.95 12.11C8.85 12.2 8.69 12.14 8.69 12.01L8.69 12C8.69 10.28 10.16 8.88 11.98 8.88L12 8.88ZM11.96 15.11C11.82 15.11 11.76 14.95 11.86 14.86L15.01 11.88C15.11 11.79 15.27 11.85 15.27 11.98L15.27 12C15.27 13.71 13.8 15.11 11.98 15.11L11.96 15.11Z" fill="#000000" fill-opacity="1.000000" fill-rule="evenodd"/>
	</g>
</svg>
