<svg width="16.000000" height="16.000000" viewBox="0 0 16 16" fill="none" xmlns="http://www.w3.org/2000/svg" xmlns:xlink="http://www.w3.org/1999/xlink">
	<desc>
			Created with Pixso.
	</desc>
	<defs/>
	<path d="M6.58 1L2 1C1.44 1 1 1.44 1 2L1 6.58C1 6.85 1.1 7.1 1.29 7.29L8.29 14.29C8.68 14.68 9.31 14.68 9.7 14.29L14.29 9.7C14.68 9.31 14.68 8.68 14.29 8.29L7.29 1.29C7.1 1.1 6.85 1 6.58 1ZM9 13.58L2 6.58L2 2L6.58 2L13.58 9L9 13.58ZM4.5 6C5.32 6 6 5.32 6 4.5C6 3.67 5.32 3 4.5 3C3.67 3 3 3.67 3 4.5C3 5.32 3.67 6 4.5 6ZM4.5 4C4.77 4 5 4.22 5 4.5C5 4.77 4.77 5 4.5 5C4.22 5 4 4.77 4 4.5C4 4.22 4.22 4 4.5 4Z" fill="#343A40" fill-opacity="1.000000" fill-rule="evenodd"/>
</svg>
