<svg width="16.000000" height="16.000000" viewBox="0 0 16 16" fill="none" xmlns="http://www.w3.org/2000/svg" xmlns:xlink="http://www.w3.org/1999/xlink">
	<desc>
			Created with Pixso.
	</desc>
	<defs/>
	<rect id="State=Member" rx="0.000000" width="15.000000" height="15.000000" transform="translate(0.500000 0.500000)" fill="#FFFFFF" fill-opacity="0"/>
	<path id="Vector" d="M6 8C7.65 8 9 6.65 9 5C9 3.34 7.65 2 6 2C4.34 2 3 3.34 3 5C3 6.65 4.34 8 6 8ZM8 5C8 6.1 7.1 7 6 7C4.89 7 4 6.1 4 5C4 3.89 4.89 3 6 3C7.1 3 8 3.89 8 5ZM14 5.5C14 5.22 13.77 5 13.5 5C13.22 5 13 5.22 13 5.5L13 7L11.5 7C11.22 7 11 7.22 11 7.5C11 7.77 11.22 8 11.5 8L13 8L13 9.5C13 9.77 13.22 10 13.5 10C13.77 10 14 9.77 14 9.5L14 8L15.5 8C15.77 8 16 7.77 16 7.5C16 7.22 15.77 7 15.5 7L14 7L14 5.5ZM6 9C11 9 12 12 12 13C12 14 11 14 11 14L1 14C1 14 0 14 0 13C0 12 1 9 6 9ZM11 12.99C10.99 12.74 10.84 12.01 10.16 11.33C9.51 10.67 8.28 10 5.99 10C3.71 10 2.48 10.67 1.83 11.33C1.15 12.01 1 12.74 1 12.99L11 12.99Z" fill="#343A40" fill-opacity="1.000000" fill-rule="evenodd"/>
</svg>
