<svg width="18.615385" height="18.615387" viewBox="0 0 18.6154 18.6154" fill="none" xmlns="http://www.w3.org/2000/svg" xmlns:xlink="http://www.w3.org/1999/xlink">
	<desc>
			Created with Pixso.
	</desc>
	<defs/>
	<path id="Vector" d="M10.47 1.16C10.47 1.2 10.46 1.24 10.46 1.27C13.12 1.81 15.12 4.16 15.12 6.98C15.12 8.25 15.7 13.96 17.45 15.12L1.16 15.12C2.9 13.96 3.49 8.25 3.49 6.98C3.49 4.16 5.49 1.81 8.14 1.27C8.14 1.24 8.14 1.2 8.14 1.16C8.14 0.52 8.66 0 9.3 0C9.95 0 10.47 0.52 10.47 1.16ZM11.63 16.28C11.63 17.57 10.59 18.61 9.3 18.61C8.02 18.61 6.98 17.57 6.98 16.28L11.63 16.28Z" fill="#919191" fill-opacity="1.000000" fill-rule="evenodd"/>
</svg>
