<svg width="16.000000" height="16.000000" viewBox="0 0 16 16" fill="none" xmlns="http://www.w3.org/2000/svg" xmlns:xlink="http://www.w3.org/1999/xlink">
	<desc>
			Created with Pixso.
	</desc>
	<defs/>
	<path d="M14 12.37C13.74 12.2 13.52 11.89 13.33 11.5C12.56 9.92 12.28 7.01 12.28 6.25C12.28 4.13 10.81 2.36 8.85 1.96C8.85 1.93 8.85 1.9 8.85 1.87C8.85 1.39 8.47 1 8 1C7.52 1 7.14 1.39 7.14 1.87C7.14 1.9 7.14 1.93 7.14 1.96C5.18 2.36 3.71 4.13 3.71 6.25C3.71 7.01 3.43 9.92 2.66 11.5C2.47 11.89 2.25 12.2 2 12.37L14 12.37ZM7.31 2.81L8 2.67L8.68 2.81C10.24 3.14 11.42 4.55 11.42 6.25C11.42 6.79 11.54 8.17 11.82 9.52C11.96 10.19 12.14 10.89 12.39 11.5L3.6 11.5C3.85 10.89 4.04 10.19 4.17 9.52C4.45 8.17 4.57 6.79 4.57 6.25C4.57 4.55 5.75 3.14 7.31 2.81ZM9.71 13.25C9.71 14.21 8.94 15 8 15C7.05 15 6.28 14.21 6.28 13.25L9.71 13.25Z" fill="#343A40" fill-opacity="1.000000" fill-rule="evenodd"/>
</svg>
