<svg width="18" height="18" viewBox="0 0 18 18" fill="none" xmlns="http://www.w3.org/2000/svg">
<path fill-rule="evenodd" clip-rule="evenodd" d="M11.9693 0.65901C12.848 -0.21967 14.2726 -0.21967 15.1513 0.65901L16.5037 2.01137C17.3824 2.89005 17.3824 4.31468 16.5037 5.19335L6.14968 15.5474L1.4827 17.103C0.603222 17.3962 -0.233482 16.5595 0.0596764 15.68L1.61534 11.013L11.9693 0.65901ZM14.0907 1.71967C13.7978 1.42678 13.3229 1.42678 13.03 1.71967L12.0157 2.73394L14.4288 5.14697L15.443 4.13269C15.7359 3.8398 15.7359 3.36493 15.443 3.07203L14.0907 1.71967ZM13.3681 6.20763L10.9551 3.7946L3.33152 11.4182L5.74454 13.8312L13.3681 6.20763ZM4.35612 14.5641L2.59862 12.8066L1.71987 15.4428L4.35612 14.5641Z" fill="#F0F0F0"/>
</svg>
