<svg width="20.000000" height="20.000000" viewBox="0 0 20 20" fill="none" xmlns="http://www.w3.org/2000/svg" xmlns:xlink="http://www.w3.org/1999/xlink">
	<desc>
			Created with Pixso.
	</desc>
	<defs>
		<clipPath id="clip459_1462">
			<rect id="State=Search" rx="0.000000" width="19.000000" height="19.000000" transform="translate(0.500000 0.500000)" fill="white" fill-opacity="0"/>
		</clipPath>
	</defs>
	<rect id="State=Search" rx="0.000000" width="19.000000" height="19.000000" transform="translate(0.500000 0.500000)" fill="#FFFFFF" fill-opacity="0"/>
	<g clip-path="url(#clip459_1462)">
		<path id="Vector" d="M2.33 9.1C2.33 5.46 5.29 2.5 8.94 2.5C12.58 2.5 15.54 5.46 15.54 9.1C15.54 10.7 14.97 12.17 14.02 13.32L17.15 16.45C17.39 16.69 17.39 17.08 17.15 17.32C17.03 17.44 16.88 17.5 16.72 17.5C16.56 17.5 16.41 17.44 16.29 17.32L13.15 14.18C12.01 15.13 10.54 15.71 8.94 15.71C5.29 15.71 2.33 12.74 2.33 9.1ZM3.55 9.1C3.55 12.07 5.97 14.49 8.94 14.49C11.91 14.49 14.32 12.07 14.32 9.1C14.32 6.13 11.91 3.71 8.94 3.71C5.97 3.71 3.55 6.13 3.55 9.1Z" fill="#B2B2B2" fill-opacity="1.000000" fill-rule="evenodd"/>
	</g>
</svg>
