<svg width="24.000000" height="24.000000" viewBox="0 0 24 24" fill="none" xmlns="http://www.w3.org/2000/svg" xmlns:xlink="http://www.w3.org/1999/xlink">
	<desc>
			Created with Pixso.
	</desc>
	<defs>
		<clipPath id="clip459_1464">
			<rect id="State=Show" rx="0.000000" width="22.500002" height="22.500002" transform="translate(0.750000 0.750000)" fill="white" fill-opacity="0"/>
		</clipPath>
	</defs>
	<g clip-path="url(#clip459_1464)">
		<path id="Icon Shape" d="M2.22 11.31C3.48 9.48 6.35 6 11.48 6C14.04 6 16.19 6.87 17.78 7.98C19.36 9.07 20.47 10.44 20.9 11.51C21.05 11.86 21.01 12.25 20.84 12.56C19.79 14.48 16.63 18 11.48 18C6.39 18 3.24 14.56 2.15 12.63C1.91 12.2 1.96 11.69 2.22 11.31ZM3.82 12.04C4.84 13.68 7.45 16.28 11.48 16.28C15.59 16.28 18.22 13.57 19.2 11.94C18.85 11.25 18.03 10.25 16.79 9.38C15.43 8.44 13.63 7.71 11.48 7.71C7.44 7.71 5.06 10.31 3.82 12.04ZM11.48 15.42C13.4 15.42 14.95 13.89 14.95 12C14.95 10.1 13.4 8.57 11.48 8.57C9.56 8.57 8.01 10.1 8.01 12C8.01 13.89 9.56 15.42 11.48 15.42ZM10.61 12C11.09 12 11.48 11.61 11.48 11.14C11.48 10.66 11.09 10.28 10.61 10.28C10.13 10.28 9.74 10.66 9.74 11.14C9.74 11.61 10.13 12 10.61 12Z" fill="#000000" fill-opacity="1.000000" fill-rule="evenodd"/>
	</g>
</svg>
