<svg width="18.000000" height="18.000000" viewBox="0 0 18 18" fill="none" xmlns="http://www.w3.org/2000/svg" xmlns:xlink="http://www.w3.org/1999/xlink">
	<desc>
			Created with Pixso.
	</desc>
	<defs/>
	<rect id="State=Star" rx="0.000000" width="17.000000" height="17.000000" transform="translate(0.500000 0.500000)" fill="#FFFFFF" fill-opacity="0"/>
	<path id="Vector" d="M11.44 5.49C11.6 5.84 12.05 6.17 12.43 6.23L14.66 6.61C16.09 6.84 16.43 7.89 15.4 8.92L13.66 10.67C13.37 10.97 13.21 11.54 13.3 11.95L13.79 14.11C14.19 15.83 13.28 16.49 11.78 15.6L9.69 14.35C9.31 14.12 8.69 14.12 8.3 14.35L6.21 15.6C4.71 16.49 3.8 15.82 4.19 14.11L4.69 11.95C4.78 11.54 4.62 10.97 4.33 10.67L2.59 8.92C1.57 7.89 1.9 6.84 3.32 6.61L5.56 6.23C5.93 6.17 6.38 5.84 6.54 5.49L7.78 3.01C8.45 1.66 9.54 1.66 10.2 3.01L11.44 5.49Z" stroke="#B2B2B2" stroke-opacity="1.000000" stroke-width="1.500000" stroke-linejoin="round"/>
	<g opacity="0.000000"/>
</svg>
