<svg width="16.000000" height="16.000000" viewBox="0 0 16 16" fill="none" xmlns="http://www.w3.org/2000/svg" xmlns:xlink="http://www.w3.org/1999/xlink">
	<desc>
			Created with Pixso.
	</desc>
	<defs/>
	<path d="M12.3 1L6.38 1C5.44 1 4.69 1.78 4.69 2.75C3.75 2.75 3 3.53 3 4.5L3 13.25C3 14.21 3.75 15 4.69 15L10.61 15C11.55 15 12.3 14.21 12.3 13.25C13.24 13.25 14 12.46 14 11.5L14 2.75C14 1.78 13.24 1 12.3 1ZM12.3 12.37L12.3 4.5C12.3 3.53 11.55 2.75 10.61 2.75L5.53 2.75C5.53 2.26 5.91 1.87 6.38 1.87L12.3 1.87C12.77 1.87 13.15 2.26 13.15 2.75L13.15 11.5C13.15 11.98 12.77 12.37 12.3 12.37ZM3.84 4.5C3.84 4.01 4.22 3.62 4.69 3.62L10.61 3.62C11.08 3.62 11.46 4.01 11.46 4.5L11.46 13.25C11.46 13.73 11.08 14.12 10.61 14.12L4.69 14.12C4.22 14.12 3.84 13.73 3.84 13.25L3.84 4.5Z" fill="#343A40" fill-opacity="1.000000" fill-rule="nonzero"/>
</svg>
