<svg width="16.000000" height="16.000000" viewBox="0 0 16 16" fill="none" xmlns="http://www.w3.org/2000/svg" xmlns:xlink="http://www.w3.org/1999/xlink">
	<desc>
			Created with Pixso.
	</desc>
	<defs/>
	<path d="M6.4 2.4L2.4 2.4L2.4 13.6L6.4 13.6L6.4 2.4ZM13.6 2.4L9.6 2.4L9.6 6.39L13.6 6.39L13.6 2.4ZM13.6 9.6L13.6 13.6L9.6 13.6L9.6 9.6L13.6 9.6ZM1.6 2.4C1.6 1.95 1.95 1.6 2.4 1.6L6.4 1.6C6.84 1.6 7.2 1.95 7.2 2.4L7.2 13.6C7.2 14.04 6.84 14.4 6.4 14.4L2.4 14.4C1.95 14.4 1.6 14.04 1.6 13.6L1.6 2.4ZM8.8 2.4C8.8 1.95 9.15 1.6 9.6 1.6L13.6 1.6C14.04 1.6 14.4 1.95 14.4 2.4L14.4 6.39C14.4 6.84 14.04 7.2 13.6 7.2L9.6 7.2C9.15 7.2 8.8 6.84 8.8 6.39L8.8 2.4ZM9.6 8.8C9.15 8.8 8.8 9.15 8.8 9.6L8.8 13.6C8.8 14.04 9.15 14.4 9.6 14.4L13.6 14.4C14.04 14.4 14.4 14.04 14.4 13.6L14.4 9.6C14.4 9.15 14.04 8.8 13.6 8.8L9.6 8.8Z" fill="#343A40" fill-opacity="1.000000" fill-rule="nonzero"/>
</svg>
