<svg width="15" height="13" viewBox="0 0 15 13" fill="none" xmlns="http://www.w3.org/2000/svg">
<path fill-rule="evenodd" clip-rule="evenodd" d="M6.91924 0.459809C7.12952 0.246796 7.47046 0.246796 7.68074 0.459809L14.1423 7.00526C14.3526 7.21828 14.3526 7.56364 14.1423 7.77665C13.932 7.98967 13.5911 7.98967 13.3808 7.77665L7.29999 1.61689L1.2192 7.77665C1.00892 7.98967 0.667982 7.98967 0.4577 7.77665C0.247417 7.56364 0.247417 7.21828 0.4577 7.00526L6.91924 0.459809Z" fill="#B2B2B2"/>
<path fill-rule="evenodd" clip-rule="evenodd" d="M6.91924 4.82345C7.12952 4.61043 7.47046 4.61043 7.68074 4.82345L14.1423 11.3689C14.3526 11.5819 14.3526 11.9273 14.1423 12.1403C13.932 12.3533 13.5911 12.3533 13.3808 12.1403L7.29999 5.98053L1.2192 12.1403C1.00892 12.3533 0.667982 12.3533 0.4577 12.1403C0.247417 11.9273 0.247417 11.5819 0.4577 11.3689L6.91924 4.82345Z" fill="#B2B2B2"/>
<path fill-rule="evenodd" clip-rule="evenodd" d="M6.91924 0.459809C7.12952 0.246796 7.47046 0.246796 7.68074 0.459809L14.1423 7.00526C14.3526 7.21828 14.3526 7.56364 14.1423 7.77665C13.932 7.98967 13.5911 7.98967 13.3808 7.77665L7.29999 1.61689L1.2192 7.77665C1.00892 7.98967 0.667982 7.98967 0.4577 7.77665C0.247417 7.56364 0.247417 7.21828 0.4577 7.00526L6.91924 0.459809Z" stroke="#B2B2B2" stroke-width="0.6" stroke-linecap="round" stroke-linejoin="round"/>
<path fill-rule="evenodd" clip-rule="evenodd" d="M6.91924 4.82345C7.12952 4.61043 7.47046 4.61043 7.68074 4.82345L14.1423 11.3689C14.3526 11.5819 14.3526 11.9273 14.1423 12.1403C13.932 12.3533 13.5911 12.3533 13.3808 12.1403L7.29999 5.98053L1.2192 12.1403C1.00892 12.3533 0.667982 12.3533 0.4577 12.1403C0.247417 11.9273 0.247417 11.5819 0.4577 11.3689L6.91924 4.82345Z" stroke="#B2B2B2" stroke-width="0.6" stroke-linecap="round" stroke-linejoin="round"/>
</svg>
