<svg viewBox="0 0 22 22" xmlns="http://www.w3.org/2000/svg" xmlns:xlink="http://www.w3.org/1999/xlink" width="22.000000" height="22.000000" fill="none" customFrame="#000000">
	<rect id="Alerts, Warning, Signs Icon" width="22.000000" height="22.000000" x="0.000000" y="0.000000" />
	<path id="Vector" d="M22 11C22 17.0751 17.0751 22 11 22C4.92487 22 0 17.0751 0 11C0 4.92487 4.92487 0 11 0C17.0751 0 22 4.92487 22 11ZM16.5417 6.8333C16.139 6.43057 15.486 6.43057 15.0833 6.8333C15.0736 6.84302 15.0644 6.85332 15.0559 6.86414L10.2814 12.948L7.40283 10.0694C7.0001 9.6667 6.34715 9.6667 5.94442 10.0694C5.54169 10.4722 5.54169 11.1251 5.94442 11.5278L9.58329 15.1667C9.98602 15.5694 10.639 15.5694 11.0417 15.1667C11.0507 15.1577 11.0591 15.1483 11.0671 15.1384L16.5563 8.27677C16.9444 7.873 16.9395 7.23108 16.5417 6.8333Z" fill="rgb(132.945,206.206,112.564)" fill-rule="nonzero" />
</svg>
