<svg viewBox="0 0 22 22" xmlns="http://www.w3.org/2000/svg" xmlns:xlink="http://www.w3.org/1999/xlink" width="22.000000" height="22.000000" fill="none" customFrame="#000000">
	<rect id="Alerts, Warning, Signs Icon" width="22.000000" height="22.000000" x="0.000000" y="0.000000" />
	<path id="Vector" d="M22 11C22 17.0751 17.0751 22 11 22C4.92487 22 0 17.0751 0 11C0 4.92487 4.92487 0 11 0C17.0751 0 22 4.92487 22 11ZM7.36114 6.38886C7.09265 6.12038 6.65735 6.12038 6.38886 6.38886C6.12038 6.65735 6.12038 7.09265 6.38886 7.36114L10.0277 11L6.38886 14.6389C6.12038 14.9074 6.12038 15.3426 6.38886 15.6111C6.65735 15.8796 7.09265 15.8796 7.36114 15.6111L11 11.9723L14.6389 15.6111C14.9074 15.8796 15.3426 15.8796 15.6111 15.6111C15.8796 15.3426 15.8796 14.9074 15.6111 14.6389L11.9723 11L15.6111 7.36114C15.8796 7.09265 15.8796 6.65735 15.6111 6.38886C15.3426 6.12038 14.9074 6.12038 14.6389 6.38886L11 10.0277L7.36114 6.38886Z" fill="rgb(231,122,122)" fill-rule="nonzero" />
</svg>
