<svg viewBox="0 0 22 22" xmlns="http://www.w3.org/2000/svg" xmlns:xlink="http://www.w3.org/1999/xlink" width="22.000000" height="22.000000" fill="none" customFrame="#000000">
	<rect id="Alerts, Warning, Signs Icon" width="22.000000" height="22.000000" x="0.000000" y="0.000000" />
	<path id="Vector" d="M22 11C22 17.0751 17.0751 22 11 22C4.92487 22 0 17.0751 0 11C0 4.92487 4.92487 0 11 0C17.0751 0 22 4.92487 22 11ZM11 5.5C10.2638 5.5 9.68856 6.13564 9.76182 6.86818L10.2441 11.6909C10.2829 12.0793 10.6097 12.375 11 12.375C11.3903 12.375 11.7171 12.0793 11.7559 11.6909L12.2382 6.86818C12.3114 6.13564 11.7362 5.5 11 5.5ZM11.0021 13.75C10.2427 13.75 9.62712 14.3656 9.62712 15.125C9.62712 15.8844 10.2427 16.5 11.0021 16.5C11.7615 16.5 12.3771 15.8844 12.3771 15.125C12.3771 14.3656 11.7615 13.75 11.0021 13.75Z" fill="rgb(237.019,159.88,52.3531)" fill-rule="nonzero" />
</svg>
